<mxfile host="app.diagrams.net" modified="2023-11-12T10:43:09.267Z" agent="Mozilla/5.0 (Windows NT 10.0; Win64; x64) AppleWebKit/537.36 (KHTML, like Gecko) Chrome/119.0.0.0 Safari/537.36" etag="ffS5IB-oszxa9P5n4Sjc" version="22.1.0" type="device">
  <diagram name="Page-1" id="MCGxyGSvKgUmzWTvX38K">
    <mxGraphModel dx="1050" dy="530" grid="0" gridSize="10" guides="1" tooltips="1" connect="1" arrows="1" fold="1" page="1" pageScale="1" pageWidth="827" pageHeight="1169" background="#ffffff" math="0" shadow="0">
      <root>
        <mxCell id="0" />
        <mxCell id="1" parent="0" />
        <mxCell id="9bm_6J2V5AB3KcFWshXu-1" value="student" style="shape=umlActor;verticalLabelPosition=bottom;verticalAlign=top;html=1;outlineConnect=0;" parent="1" vertex="1">
          <mxGeometry x="76" y="216" width="30" height="60" as="geometry" />
        </mxCell>
        <mxCell id="9bm_6J2V5AB3KcFWshXu-2" value="TPO" style="shape=umlActor;verticalLabelPosition=bottom;verticalAlign=top;html=1;outlineConnect=0;" parent="1" vertex="1">
          <mxGeometry x="693" y="80" width="30" height="60" as="geometry" />
        </mxCell>
        <mxCell id="9bm_6J2V5AB3KcFWshXu-3" value="Chairman" style="shape=umlActor;verticalLabelPosition=bottom;verticalAlign=top;html=1;outlineConnect=0;" parent="1" vertex="1">
          <mxGeometry x="693" y="393" width="30" height="60" as="geometry" />
        </mxCell>
        <mxCell id="9bm_6J2V5AB3KcFWshXu-4" value="view_jobs" style="ellipse;whiteSpace=wrap;html=1;" parent="1" vertex="1">
          <mxGeometry x="156" y="71" width="123" height="43" as="geometry" />
        </mxCell>
        <mxCell id="9bm_6J2V5AB3KcFWshXu-5" value="apply_in_a_drive" style="ellipse;whiteSpace=wrap;html=1;" parent="1" vertex="1">
          <mxGeometry x="207.5" y="114" width="140" height="48" as="geometry" />
        </mxCell>
        <mxCell id="9bm_6J2V5AB3KcFWshXu-6" value="upload_documents" style="ellipse;whiteSpace=wrap;html=1;" parent="1" vertex="1">
          <mxGeometry x="224" y="169" width="135" height="47" as="geometry" />
        </mxCell>
        <mxCell id="9bm_6J2V5AB3KcFWshXu-7" value="upload_offer_letter" style="ellipse;whiteSpace=wrap;html=1;" parent="1" vertex="1">
          <mxGeometry x="212" y="223.5" width="131" height="45" as="geometry" />
        </mxCell>
        <mxCell id="9bm_6J2V5AB3KcFWshXu-8" value="create/generate resume" style="ellipse;whiteSpace=wrap;html=1;" parent="1" vertex="1">
          <mxGeometry x="202.5" y="279" width="145" height="40" as="geometry" />
        </mxCell>
        <mxCell id="9bm_6J2V5AB3KcFWshXu-9" value="" style="endArrow=none;html=1;rounded=0;" parent="1" source="9bm_6J2V5AB3KcFWshXu-1" target="9bm_6J2V5AB3KcFWshXu-4" edge="1">
          <mxGeometry width="50" height="50" relative="1" as="geometry">
            <mxPoint x="516" y="255" as="sourcePoint" />
            <mxPoint x="566" y="205" as="targetPoint" />
          </mxGeometry>
        </mxCell>
        <mxCell id="9bm_6J2V5AB3KcFWshXu-10" value="" style="endArrow=none;html=1;rounded=0;" parent="1" source="9bm_6J2V5AB3KcFWshXu-1" target="9bm_6J2V5AB3KcFWshXu-5" edge="1">
          <mxGeometry width="50" height="50" relative="1" as="geometry">
            <mxPoint x="516" y="255" as="sourcePoint" />
            <mxPoint x="566" y="205" as="targetPoint" />
          </mxGeometry>
        </mxCell>
        <mxCell id="9bm_6J2V5AB3KcFWshXu-12" value="" style="endArrow=none;html=1;rounded=0;" parent="1" source="9bm_6J2V5AB3KcFWshXu-1" target="9bm_6J2V5AB3KcFWshXu-6" edge="1">
          <mxGeometry width="50" height="50" relative="1" as="geometry">
            <mxPoint x="516" y="255" as="sourcePoint" />
            <mxPoint x="566" y="205" as="targetPoint" />
          </mxGeometry>
        </mxCell>
        <mxCell id="9bm_6J2V5AB3KcFWshXu-13" value="" style="endArrow=none;html=1;rounded=0;" parent="1" source="9bm_6J2V5AB3KcFWshXu-7" target="9bm_6J2V5AB3KcFWshXu-1" edge="1">
          <mxGeometry width="50" height="50" relative="1" as="geometry">
            <mxPoint x="278" y="255" as="sourcePoint" />
            <mxPoint x="566" y="205" as="targetPoint" />
          </mxGeometry>
        </mxCell>
        <mxCell id="9bm_6J2V5AB3KcFWshXu-14" value="" style="endArrow=none;html=1;rounded=0;" parent="1" source="9bm_6J2V5AB3KcFWshXu-1" target="9bm_6J2V5AB3KcFWshXu-8" edge="1">
          <mxGeometry width="50" height="50" relative="1" as="geometry">
            <mxPoint x="516" y="255" as="sourcePoint" />
            <mxPoint x="566" y="205" as="targetPoint" />
          </mxGeometry>
        </mxCell>
        <mxCell id="9bm_6J2V5AB3KcFWshXu-15" value="List_job" style="ellipse;whiteSpace=wrap;html=1;" parent="1" vertex="1">
          <mxGeometry x="463" width="90" height="41" as="geometry" />
        </mxCell>
        <mxCell id="9bm_6J2V5AB3KcFWshXu-16" value="make_announcement" style="ellipse;whiteSpace=wrap;html=1;" parent="1" vertex="1">
          <mxGeometry x="431" y="49" width="129" height="48" as="geometry" />
        </mxCell>
        <mxCell id="9bm_6J2V5AB3KcFWshXu-17" value="view statistics" style="ellipse;whiteSpace=wrap;html=1;" parent="1" vertex="1">
          <mxGeometry x="423" y="103" width="98" height="40" as="geometry" />
        </mxCell>
        <mxCell id="9bm_6J2V5AB3KcFWshXu-18" value="view_applications" style="ellipse;whiteSpace=wrap;html=1;" parent="1" vertex="1">
          <mxGeometry x="197" y="324" width="123" height="43" as="geometry" />
        </mxCell>
        <mxCell id="9bm_6J2V5AB3KcFWshXu-19" value="" style="endArrow=none;html=1;rounded=0;" parent="1" source="9bm_6J2V5AB3KcFWshXu-18" target="9bm_6J2V5AB3KcFWshXu-1" edge="1">
          <mxGeometry width="50" height="50" relative="1" as="geometry">
            <mxPoint x="516" y="255" as="sourcePoint" />
            <mxPoint x="566" y="205" as="targetPoint" />
          </mxGeometry>
        </mxCell>
        <mxCell id="9bm_6J2V5AB3KcFWshXu-20" value="generate report" style="ellipse;whiteSpace=wrap;html=1;" parent="1" vertex="1">
          <mxGeometry x="404" y="154" width="117" height="39" as="geometry" />
        </mxCell>
        <mxCell id="9bm_6J2V5AB3KcFWshXu-21" value="update_data" style="ellipse;whiteSpace=wrap;html=1;" parent="1" vertex="1">
          <mxGeometry x="424" y="252" width="129" height="48" as="geometry" />
        </mxCell>
        <mxCell id="9bm_6J2V5AB3KcFWshXu-22" value="manage_placement_schedule" style="ellipse;whiteSpace=wrap;html=1;" parent="1" vertex="1">
          <mxGeometry x="369" y="201" width="176" height="41" as="geometry" />
        </mxCell>
        <mxCell id="9bm_6J2V5AB3KcFWshXu-23" value="" style="endArrow=none;html=1;rounded=0;" parent="1" source="9bm_6J2V5AB3KcFWshXu-15" target="9bm_6J2V5AB3KcFWshXu-2" edge="1">
          <mxGeometry width="50" height="50" relative="1" as="geometry">
            <mxPoint x="516" y="255" as="sourcePoint" />
            <mxPoint x="566" y="205" as="targetPoint" />
          </mxGeometry>
        </mxCell>
        <mxCell id="9bm_6J2V5AB3KcFWshXu-24" value="" style="endArrow=none;html=1;rounded=0;" parent="1" source="9bm_6J2V5AB3KcFWshXu-16" target="9bm_6J2V5AB3KcFWshXu-2" edge="1">
          <mxGeometry width="50" height="50" relative="1" as="geometry">
            <mxPoint x="516" y="255" as="sourcePoint" />
            <mxPoint x="566" y="205" as="targetPoint" />
          </mxGeometry>
        </mxCell>
        <mxCell id="9bm_6J2V5AB3KcFWshXu-25" value="" style="endArrow=none;html=1;rounded=0;" parent="1" source="9bm_6J2V5AB3KcFWshXu-17" target="9bm_6J2V5AB3KcFWshXu-2" edge="1">
          <mxGeometry width="50" height="50" relative="1" as="geometry">
            <mxPoint x="516" y="255" as="sourcePoint" />
            <mxPoint x="566" y="205" as="targetPoint" />
          </mxGeometry>
        </mxCell>
        <mxCell id="9bm_6J2V5AB3KcFWshXu-26" value="" style="endArrow=none;html=1;rounded=0;" parent="1" source="9bm_6J2V5AB3KcFWshXu-20" target="9bm_6J2V5AB3KcFWshXu-2" edge="1">
          <mxGeometry width="50" height="50" relative="1" as="geometry">
            <mxPoint x="516" y="255" as="sourcePoint" />
            <mxPoint x="566" y="205" as="targetPoint" />
          </mxGeometry>
        </mxCell>
        <mxCell id="9bm_6J2V5AB3KcFWshXu-27" value="" style="endArrow=none;html=1;rounded=0;" parent="1" source="9bm_6J2V5AB3KcFWshXu-22" target="9bm_6J2V5AB3KcFWshXu-2" edge="1">
          <mxGeometry width="50" height="50" relative="1" as="geometry">
            <mxPoint x="516" y="255" as="sourcePoint" />
            <mxPoint x="566" y="205" as="targetPoint" />
          </mxGeometry>
        </mxCell>
        <mxCell id="9bm_6J2V5AB3KcFWshXu-28" value="" style="endArrow=none;html=1;rounded=0;" parent="1" source="9bm_6J2V5AB3KcFWshXu-21" target="9bm_6J2V5AB3KcFWshXu-2" edge="1">
          <mxGeometry width="50" height="50" relative="1" as="geometry">
            <mxPoint x="516" y="255" as="sourcePoint" />
            <mxPoint x="566" y="205" as="targetPoint" />
          </mxGeometry>
        </mxCell>
        <mxCell id="9bm_6J2V5AB3KcFWshXu-30" value="view_statistics" style="ellipse;whiteSpace=wrap;html=1;" parent="1" vertex="1">
          <mxGeometry x="446" y="422" width="129" height="48" as="geometry" />
        </mxCell>
        <mxCell id="9bm_6J2V5AB3KcFWshXu-31" value="generate_report" style="ellipse;whiteSpace=wrap;html=1;" parent="1" vertex="1">
          <mxGeometry x="446" y="367" width="129" height="48" as="geometry" />
        </mxCell>
        <mxCell id="9bm_6J2V5AB3KcFWshXu-32" value="make_announcement" style="ellipse;whiteSpace=wrap;html=1;" parent="1" vertex="1">
          <mxGeometry x="452" y="486" width="129" height="48" as="geometry" />
        </mxCell>
        <mxCell id="9bm_6J2V5AB3KcFWshXu-33" value="" style="endArrow=none;html=1;rounded=0;" parent="1" source="9bm_6J2V5AB3KcFWshXu-31" target="9bm_6J2V5AB3KcFWshXu-3" edge="1">
          <mxGeometry width="50" height="50" relative="1" as="geometry">
            <mxPoint x="516" y="255" as="sourcePoint" />
            <mxPoint x="566" y="205" as="targetPoint" />
          </mxGeometry>
        </mxCell>
        <mxCell id="9bm_6J2V5AB3KcFWshXu-34" value="" style="endArrow=none;html=1;rounded=0;" parent="1" source="9bm_6J2V5AB3KcFWshXu-30" target="9bm_6J2V5AB3KcFWshXu-3" edge="1">
          <mxGeometry width="50" height="50" relative="1" as="geometry">
            <mxPoint x="516" y="255" as="sourcePoint" />
            <mxPoint x="566" y="205" as="targetPoint" />
          </mxGeometry>
        </mxCell>
        <mxCell id="9bm_6J2V5AB3KcFWshXu-35" value="" style="endArrow=none;html=1;rounded=0;" parent="1" source="9bm_6J2V5AB3KcFWshXu-32" target="9bm_6J2V5AB3KcFWshXu-3" edge="1">
          <mxGeometry width="50" height="50" relative="1" as="geometry">
            <mxPoint x="516" y="255" as="sourcePoint" />
            <mxPoint x="566" y="205" as="targetPoint" />
          </mxGeometry>
        </mxCell>
        <mxCell id="lpxEKoiJfQBW2szO7P0m-1" value="view_placement_schedule" style="ellipse;whiteSpace=wrap;html=1;" parent="1" vertex="1">
          <mxGeometry x="156" y="378" width="160" height="44" as="geometry" />
        </mxCell>
        <mxCell id="bvR9IGQkaO7FbkyxBzeY-1" value="" style="endArrow=none;html=1;rounded=0;" parent="1" source="lpxEKoiJfQBW2szO7P0m-1" target="9bm_6J2V5AB3KcFWshXu-1" edge="1">
          <mxGeometry width="50" height="50" relative="1" as="geometry">
            <mxPoint x="387" y="307" as="sourcePoint" />
            <mxPoint x="437" y="257" as="targetPoint" />
          </mxGeometry>
        </mxCell>
        <mxCell id="Zlne7M1zo18zbnp463fN-1" value="manage_alumni_data" style="ellipse;whiteSpace=wrap;html=1;" vertex="1" parent="1">
          <mxGeometry x="454" y="306" width="137" height="44" as="geometry" />
        </mxCell>
        <mxCell id="Zlne7M1zo18zbnp463fN-3" value="" style="endArrow=none;html=1;rounded=0;" edge="1" parent="1" source="Zlne7M1zo18zbnp463fN-1" target="9bm_6J2V5AB3KcFWshXu-2">
          <mxGeometry width="50" height="50" relative="1" as="geometry">
            <mxPoint x="387" y="277" as="sourcePoint" />
            <mxPoint x="437" y="227" as="targetPoint" />
          </mxGeometry>
        </mxCell>
      </root>
    </mxGraphModel>
  </diagram>
</mxfile>
